<svg width="20" height="20" viewBox="0 0 20 20" fill="none" xmlns="http://www.w3.org/2000/svg">
<path d="M15.4665 3.90821L15.4665 3.90821C18.8227 7.26413 19.2064 12.6503 16.3603 16.4374L16.3361 16.4653C15.7822 17.0234 16.1765 17.975 16.9644 17.975H17.4375C17.5549 17.975 17.65 18.0701 17.65 18.1875C17.65 18.3049 17.5549 18.4 17.4375 18.4H14.5335C14.4185 18.4 14.3083 18.3543 14.227 18.273C14.1457 18.1917 14.1 18.0815 14.1 17.9665V15.0625C14.1 14.9451 14.1951 14.85 14.3125 14.85C14.4299 14.85 14.525 14.9451 14.525 15.0625V15.6118C14.525 16.3733 15.4457 16.7546 15.9841 16.2161C16.0128 16.1873 16.0399 16.1562 16.0643 16.1231C18.7366 12.5066 18.3563 7.39861 15.166 4.20866C13.5104 2.55305 11.3322 1.60872 9.0034 1.53031C8.88259 1.52624 8.7875 1.42899 8.7875 1.3125C8.7875 1.19432 8.88286 1.10127 8.99689 1.10486C11.4418 1.18185 13.7286 2.17034 15.4665 3.90821Z" fill="#EDF8FD" stroke="#EDF8FD" stroke-width="0.2"/>
<path d="M3.39106 3.93633C3.41244 3.9074 3.43618 3.88004 3.46161 3.8546C3.937 3.3791 4.74998 3.71579 4.74998 4.38817V4.9375C4.74998 5.11009 4.88989 5.25 5.06248 5.25C5.23507 5.25 5.37498 5.11009 5.37498 4.9375V2.03347C5.37498 1.89199 5.31877 1.7563 5.21873 1.65625C5.11868 1.5562 4.98299 1.5 4.84151 1.5H1.93748C1.76489 1.5 1.62498 1.63991 1.62498 1.8125C1.62498 1.98509 1.76489 2.125 1.93748 2.125H2.41057C3.11042 2.125 3.46041 2.97164 2.9656 3.46656L2.93685 3.49969C0.0584154 7.32687 0.445916 12.7706 3.83779 16.1625C5.59362 17.9183 7.90459 18.9173 10.3749 18.9951C10.5474 19.0005 10.6875 18.8601 10.6875 18.6875C10.6875 18.5149 10.5474 18.3756 10.3749 18.3697C8.0715 18.2922 5.91737 17.3583 4.27967 15.7206C1.12436 12.5656 0.74861 7.51296 3.39106 3.93633Z" fill="#EDF8FD"/>
</svg>
