<svg width="24" height="24" viewBox="0 0 24 24" fill="none" xmlns="http://www.w3.org/2000/svg">
<path d="M9.5 19C4.2617 19 0 14.7383 0 9.5C0 4.2617 4.2617 0 9.5 0C14.7383 0 19 4.2617 19 9.5C19 14.7383 14.7383 19 9.5 19ZM9.5 1.9C5.30955 1.9 1.9 5.30955 1.9 9.5C1.9 13.6904 5.30955 17.1 9.5 17.1C13.6904 17.1 17.1 13.6904 17.1 9.5C17.1 5.30955 13.6914 1.9 9.5 1.9Z" fill="#AD272A"/>
<path d="M23.0706 24C22.9487 24.0001 22.8279 23.9762 22.7153 23.9295C22.6026 23.8828 22.5003 23.8143 22.4143 23.728L15.2719 16.5847C15.1857 16.4985 15.1173 16.3961 15.0707 16.2835C15.024 16.1709 15 16.0502 15 15.9283C15 15.8064 15.024 15.6857 15.0707 15.573C15.1173 15.4604 15.1857 15.3581 15.2719 15.2719C15.358 15.1857 15.4604 15.1173 15.573 15.0707C15.6856 15.024 15.8063 15 15.9282 15C16.0501 15 16.1708 15.024 16.2834 15.0707C16.396 15.1173 16.4983 15.1857 16.5845 15.2719L23.7269 22.4152C23.8571 22.5448 23.9459 22.7103 23.982 22.8905C24.018 23.0707 23.9997 23.2576 23.9294 23.4274C23.8591 23.5972 23.7399 23.7423 23.587 23.8442C23.4341 23.9462 23.2543 24.0004 23.0706 24Z" fill="#AD272A"/>
</svg>
