<svg width="25" height="31" viewBox="0 0 25 31" fill="none" xmlns="http://www.w3.org/2000/svg">
<path d="M21.4286 0H3.57143C1.59821 0 0 1.38725 0 3.1V27.9C0 29.6127 1.59821 30.9845 3.57143 30.9845L21.4286 31C23.4018 31 25 29.6127 25 27.9V3.1C25 1.38725 23.4018 0 21.4286 0ZM12.5 3.1C14.4732 3.1 16.0714 4.48725 16.0714 6.2C16.0714 7.91275 14.4732 9.3 12.5 9.3C10.5268 9.3 8.92857 7.91275 8.92857 6.2C8.92857 4.48725 10.5268 3.1 12.5 3.1ZM12.5 27.9C7.57143 27.9 3.57143 24.428 3.57143 20.15C3.57143 15.872 7.57143 12.4 12.5 12.4C17.4286 12.4 21.4286 15.872 21.4286 20.15C21.4286 24.428 17.4286 27.9 12.5 27.9ZM12.5 15.5C9.54464 15.5 7.14286 17.5847 7.14286 20.15C7.14286 22.7152 9.54464 24.8 12.5 24.8C15.4554 24.8 17.8571 22.7152 17.8571 20.15C17.8571 17.5847 15.4554 15.5 12.5 15.5Z" fill="#929AA0"/>
</svg>
