<svg width="20" height="20" viewBox="0 0 20 20" fill="none" xmlns="http://www.w3.org/2000/svg">
<path fill-rule="evenodd" clip-rule="evenodd" d="M0.473909 15.8935C0.348454 15.8935 0.228136 15.9434 0.139426 16.0322C0.0507163 16.1211 0.000878751 16.2416 0.000878751 16.3672C0.000878751 16.4928 0.0507163 16.6133 0.139426 16.7022C0.228136 16.791 0.348454 16.8409 0.473909 16.8409C2.33876 16.8409 4.08756 16.0898 5.39235 14.7259C5.4353 14.6809 5.46898 14.6279 5.49148 14.5699C5.51397 14.5119 5.52483 14.45 5.52344 14.3878C5.52205 14.3256 5.50845 14.2642 5.48339 14.2073C5.45833 14.1503 5.42231 14.0989 5.37739 14.0558C5.33248 14.0128 5.27955 13.9791 5.22161 13.9565C5.16368 13.934 5.10188 13.9232 5.03975 13.9245C4.97762 13.9259 4.91637 13.9396 4.8595 13.9647C4.80263 13.9898 4.75125 14.0258 4.7083 14.0708C4.16359 14.6473 3.50705 15.1063 2.77893 15.4197C2.0508 15.7332 1.26644 15.8944 0.473909 15.8935ZM13.1762 15.8935C9.9459 15.8935 7.31698 13.2722 7.29588 10.0407C7.29764 10.0266 7.29765 10.0133 7.29765 10.001C7.29765 6.22886 4.23527 3.16289 0.47303 3.16289C0.347575 3.16289 0.227258 3.21279 0.138548 3.30163C0.0498376 3.39047 0 3.51097 0 3.63661C0 3.76225 0.0498376 3.88275 0.138548 3.97159C0.227258 4.06043 0.347575 4.11032 0.47303 4.11032C2.02555 4.11191 3.51455 4.72786 4.61564 5.82397C5.70734 6.91073 6.33001 8.38218 6.35118 9.92253C6.35154 9.94896 6.34983 9.97547 6.34983 10.0019C6.34983 13.7723 9.4122 16.84 13.1762 16.84H15.9837C16.8746 16.84 17.3208 17.9172 16.6908 18.5472L16.0267 19.2113C15.9473 19.3021 15.9054 19.4197 15.9094 19.5403C15.9134 19.6609 15.963 19.7754 16.0482 19.8607C16.1334 19.9461 16.2478 19.9957 16.3682 19.9997C16.4886 20.0037 16.606 19.9617 16.6967 19.8823L19.8751 16.7009C19.9503 16.6188 19.9942 16.5128 19.9991 16.4015C20.0026 16.369 19.9955 16.3434 19.9885 16.3091C19.985 16.2677 19.9955 16.2246 19.978 16.1849C19.9604 16.1436 19.9243 16.1215 19.8988 16.0872C19.8856 16.0705 19.8892 16.0484 19.8751 16.0308L16.6967 12.8513C16.6076 12.7628 16.4872 12.7131 16.3617 12.7131C16.2362 12.7131 16.1158 12.7628 16.0267 12.8513C15.9384 12.9402 15.8889 13.0605 15.8889 13.1859C15.8889 13.3113 15.9384 13.4316 16.0267 13.5205L16.6924 14.1866C17.322 14.8167 16.8757 15.8935 15.985 15.8935H13.1762ZM19.9885 3.69296C19.985 3.73434 19.9955 3.77749 19.978 3.81888C19.9604 3.86026 19.9243 3.88228 19.8988 3.91486C19.8848 3.93247 19.8883 3.95624 19.8751 3.97121L16.5023 7.34889C16.4133 7.4374 16.2929 7.48707 16.1674 7.48707C16.0419 7.48707 15.9215 7.4374 15.8324 7.34889C15.744 7.25967 15.6944 7.13908 15.6944 7.0134C15.6944 6.88773 15.744 6.76716 15.8324 6.67794L16.6933 5.81635C17.3228 5.18638 16.8768 4.10981 15.9862 4.10952L13.1762 4.10858C12.3852 4.10698 11.6022 4.2671 10.8752 4.57915C10.1481 4.8912 9.49233 5.34861 8.94797 5.92334C8.90493 5.96814 8.85349 6.00399 8.7966 6.02886C8.73971 6.05373 8.67848 6.06711 8.61641 6.06825C8.55435 6.0694 8.49266 6.05828 8.43489 6.03553C8.37712 6.01277 8.3244 5.97883 8.27975 5.93564C8.23478 5.89278 8.19869 5.84145 8.17355 5.7846C8.14841 5.72775 8.13471 5.66651 8.13324 5.60435C8.13177 5.54219 8.14256 5.48035 8.16498 5.42237C8.18741 5.3644 8.22103 5.31142 8.26392 5.26647C8.89685 4.59985 9.65877 4.06936 10.5032 3.70739C11.3476 3.34542 12.2568 3.15955 13.1753 3.16112L15.983 3.16207C16.8739 3.16237 17.3204 2.08541 16.6907 1.45522L16.0258 0.789877C15.9454 0.699322 15.9027 0.581421 15.9063 0.460325C15.91 0.339231 15.9597 0.224119 16.0454 0.138567C16.131 0.0530148 16.2461 0.0035038 16.367 0.000179291C16.488 -0.00314522 16.6056 0.0399532 16.6958 0.12067L19.8742 3.302C19.9497 3.38393 19.9936 3.49003 19.9982 3.60138C20.0026 3.63484 19.9955 3.66038 19.9885 3.69296Z" fill="#EDF8FD"/>
</svg>
