<svg width="22" height="31" viewBox="0 0 22 31" fill="none" xmlns="http://www.w3.org/2000/svg">
<path d="M18.8571 0H3.14286C1.40643 0 0 1.38725 0 3.1V27.9C0 29.6127 1.40643 30.9845 3.14286 30.9845L18.8571 31C20.5936 31 22 29.6127 22 27.9V3.1C22 1.38725 20.5936 0 18.8571 0ZM11 3.1C12.7364 3.1 14.1429 4.48725 14.1429 6.2C14.1429 7.91275 12.7364 9.3 11 9.3C9.26357 9.3 7.85714 7.91275 7.85714 6.2C7.85714 4.48725 9.26357 3.1 11 3.1ZM11 27.9C6.66286 27.9 3.14286 24.428 3.14286 20.15C3.14286 15.872 6.66286 12.4 11 12.4C15.3371 12.4 18.8571 15.872 18.8571 20.15C18.8571 24.428 15.3371 27.9 11 27.9ZM11 15.5C8.39929 15.5 6.28571 17.5847 6.28571 20.15C6.28571 22.7152 8.39929 24.8 11 24.8C13.6007 24.8 15.7143 22.7152 15.7143 20.15C15.7143 17.5847 13.6007 15.5 11 15.5Z" fill="#EDF8FD"/>
</svg>
