<svg width="20" height="20" viewBox="0 0 20 20" fill="none" xmlns="http://www.w3.org/2000/svg">
<path d="M14.9185 4.45616L14.9185 4.45615C13.3256 2.86322 11.2316 1.95553 8.99163 1.88011C8.68994 1.86995 8.4375 1.62535 8.4375 1.3125C8.4375 1.00389 8.68924 0.745004 9.00791 0.755038C11.5419 0.834826 13.9132 1.85998 15.714 3.66072L14.9185 4.45616ZM14.9185 4.45616C17.9865 7.5238 18.352 12.4382 15.7828 15.9151C15.7693 15.9335 15.7537 15.9515 15.7366 15.9686C15.4187 16.2866 14.875 16.0615 14.875 15.6118V15.0625C14.875 14.7518 14.6232 14.5 14.3125 14.5C14.0018 14.5 13.75 14.7518 13.75 15.0625V17.9665C13.75 18.1743 13.8325 18.3736 13.9795 18.5205C14.1264 18.6675 14.3257 18.75 14.5335 18.75H17.4375C17.7482 18.75 18 18.4982 18 18.1875C18 17.8768 17.7482 17.625 17.4375 17.625H16.9644C16.4878 17.625 16.2485 17.048 16.5862 16.7102L16.5924 16.704L16.5982 16.6973L16.6269 16.6642L16.6327 16.6576M14.9185 4.45616L16.6327 16.6576M16.6327 16.6576L16.6379 16.6506M16.6327 16.6576L16.6379 16.6506M16.6379 16.6506C19.5914 12.7236 19.194 7.14044 15.714 3.66072L16.6379 16.6506Z" fill="#D90429" stroke="#D90429" stroke-width="0.5"/>
<path d="M2.74811 3.33582L2.74237 3.34243L2.73712 3.34942C-0.216382 7.27641 0.181375 12.8596 3.66107 16.3393C5.46181 18.14 7.83315 19.1652 10.3671 19.245C10.6858 19.255 10.9375 18.9961 10.9375 18.6875C10.9375 18.3747 10.6851 18.13 10.3834 18.1199C8.14341 18.0445 6.04943 17.1368 4.4565 15.5438L4.45649 15.5438C1.38857 12.4762 1.02337 7.56186 3.5922 4.08489C3.60579 4.06649 3.62133 4.04851 3.63847 4.03136C3.95638 3.71338 4.50004 3.93853 4.50004 4.38817V4.9375C4.50004 5.24816 4.75188 5.5 5.06254 5.5C5.3732 5.5 5.62504 5.24816 5.62504 4.9375V2.03347C5.62504 1.82568 5.54249 1.6264 5.39557 1.47947C5.24864 1.33254 5.04936 1.25 4.84157 1.25H1.93754C1.62688 1.25 1.37504 1.50184 1.37504 1.8125C1.37504 2.12316 1.62688 2.375 1.93754 2.375H2.41063C2.88725 2.375 3.12657 2.95202 2.78887 3.28981L2.78264 3.29604L2.77686 3.30269L2.74811 3.33582Z" fill="#D90429" stroke="#D90429" stroke-width="0.5"/>
</svg>
