<svg width="32" height="32" viewBox="0 0 32 32" fill="none" xmlns="http://www.w3.org/2000/svg">
<path d="M12.4861 24.9722C5.60127 24.9722 0 19.371 0 12.4861C0 5.60127 5.60127 0 12.4861 0C19.371 0 24.9722 5.60127 24.9722 12.4861C24.9722 19.371 19.371 24.9722 12.4861 24.9722ZM12.4861 2.49722C6.97849 2.49722 2.49722 6.97849 2.49722 12.4861C2.49722 17.9937 6.97849 22.475 12.4861 22.475C17.9937 22.475 22.475 17.9937 22.475 12.4861C22.475 6.97849 17.995 2.49722 12.4861 2.49722Z" fill="#929AA0"/>
<path d="M30.755 32.0001C30.5917 32.0003 30.4299 31.9682 30.2791 31.9057C30.1282 31.8431 29.9912 31.7514 29.8758 31.6357L20.3085 22.0673C20.1931 21.9518 20.1015 21.8147 20.039 21.6639C19.9766 21.513 19.9444 21.3513 19.9444 21.188C19.9444 21.0247 19.9766 20.863 20.039 20.7122C20.1015 20.5613 20.1931 20.4242 20.3085 20.3088C20.424 20.1933 20.5611 20.1017 20.7119 20.0392C20.8627 19.9767 21.0244 19.9446 21.1877 19.9446C21.351 19.9446 21.5126 19.9767 21.6635 20.0392C21.8143 20.1017 21.9514 20.1933 22.0668 20.3088L31.6341 29.8773C31.8086 30.0509 31.9275 30.2726 31.9758 30.514C32.0241 30.7554 31.9996 31.0057 31.9054 31.2332C31.8112 31.4606 31.6516 31.655 31.4467 31.7915C31.2419 31.9281 31.0011 32.0007 30.755 32.0001Z" fill="#929AA0"/>
</svg>
