<svg width="30" height="31" viewBox="0 0 30 31" fill="none" xmlns="http://www.w3.org/2000/svg">
<path d="M27.5488 16.5229C27.304 16.24 27.169 15.8765 27.169 15.5C27.169 15.1235 27.304 14.76 27.5488 14.4771L29.5031 12.2454C29.7185 12.0016 29.8522 11.6948 29.8851 11.369C29.918 11.0433 29.8484 10.7153 29.6863 10.4322L26.6327 5.06992C26.4722 4.78711 26.2279 4.56295 25.9346 4.42937C25.6412 4.29579 25.3138 4.25962 24.999 4.32602L22.1286 4.91494C21.7634 4.99154 21.3832 4.9298 21.0597 4.74136C20.7362 4.55293 20.4919 4.25083 20.3728 3.89208L19.4414 1.05596C19.339 0.748144 19.1439 0.480783 18.8836 0.291673C18.6233 0.102563 18.3111 0.00126896 17.991 0.00210765H11.8838C11.5508 -0.0155321 11.2213 0.0779332 10.9456 0.268228C10.6699 0.458523 10.4632 0.735188 10.357 1.05596L9.50194 3.89208C9.38285 4.25083 9.13852 4.55293 8.81505 4.74136C8.49158 4.9298 8.11135 4.99154 7.74611 4.91494L4.79938 4.32602C4.50097 4.28322 4.19675 4.33101 3.92505 4.46339C3.65335 4.59577 3.42632 4.80681 3.27257 5.06992L0.218961 10.4322C0.0527833 10.7122 -0.0219355 11.0383 0.00548668 11.364C0.0329089 11.6896 0.161068 11.9982 0.371641 12.2454L2.31068 14.4771C2.55546 14.76 2.69045 15.1235 2.69045 15.5C2.69045 15.8765 2.55546 16.24 2.31068 16.5229L0.371641 18.7546C0.161068 19.0018 0.0329089 19.3104 0.00548668 19.636C-0.0219355 19.9617 0.0527833 20.2878 0.218961 20.5678L3.27257 25.9301C3.43304 26.2129 3.67736 26.4371 3.97071 26.5706C4.26406 26.7042 4.59146 26.7404 4.90626 26.674L7.77665 26.0851C8.14189 26.0085 8.52212 26.0702 8.84559 26.2586C9.16906 26.4471 9.41339 26.7492 9.53248 27.1079L10.4638 29.944C10.5701 30.2648 10.7768 30.5415 11.0525 30.7318C11.3282 30.9221 11.6577 31.0155 11.9906 30.9979H18.0979C18.4179 30.9987 18.7302 30.8974 18.9905 30.7083C19.2508 30.5192 19.4459 30.2519 19.5483 29.944L20.4797 27.1079C20.5988 26.7492 20.8431 26.4471 21.1666 26.2586C21.49 26.0702 21.8703 26.0085 22.2355 26.0851L25.1059 26.674C25.4207 26.7404 25.7481 26.7042 26.0414 26.5706C26.3348 26.4371 26.5791 26.2129 26.7396 25.9301L29.7932 20.5678C29.9553 20.2847 30.0249 19.9567 29.992 19.631C29.9591 19.3052 29.8253 18.9984 29.61 18.7546L27.5488 16.5229ZM25.2739 18.5996L26.4953 19.9944L24.541 23.4349L22.7394 23.063C21.6397 22.8348 20.4958 23.0244 19.5248 23.5958C18.5538 24.1672 17.8233 25.0805 17.4719 26.1625L16.8917 27.8983H12.9831L12.4334 26.1316C12.082 25.0496 11.3515 24.1362 10.3805 23.5648C9.40946 22.9934 8.26557 22.8038 7.16593 23.032L5.3643 23.4039L3.37945 19.9789L4.60089 18.5841C5.35201 17.7317 5.76727 16.6281 5.76727 15.4845C5.76727 14.3409 5.35201 13.2373 4.60089 12.3849L3.37945 10.9901L5.33376 7.58058L7.13539 7.95253C8.23503 8.18069 9.37892 7.99109 10.3499 7.41971C11.3209 6.84833 12.0515 5.93495 12.4029 4.85295L12.9831 3.10169H16.8917L17.4719 4.86845C17.8233 5.95044 18.5538 6.86382 19.5248 7.4352C20.4958 8.00658 21.6397 8.19619 22.7394 7.96802L24.541 7.59607L26.4953 11.0366L25.2739 12.4314C24.5312 13.2819 24.1211 14.379 24.1211 15.5155C24.1211 16.652 24.5312 17.7491 25.2739 18.5996ZM14.9374 9.30084C13.7295 9.30084 12.5487 9.66442 11.5444 10.3456C10.5401 11.0268 9.75727 11.9949 9.29503 13.1277C8.83279 14.2604 8.71185 15.5069 8.9475 16.7094C9.18314 17.9119 9.7648 19.0165 10.6189 19.8835C11.473 20.7504 12.5612 21.3408 13.7459 21.58C14.9306 21.8192 16.1586 21.6965 17.2745 21.2273C18.3905 20.7581 19.3443 19.9635 20.0153 18.9441C20.6864 17.9246 21.0446 16.7261 21.0446 15.5C21.0446 13.8559 20.4012 12.2791 19.2558 11.1165C18.1105 9.95397 16.5571 9.30084 14.9374 9.30084ZM14.9374 18.5996C14.3334 18.5996 13.743 18.4178 13.2409 18.0772C12.7387 17.7366 12.3473 17.2525 12.1162 16.6862C11.8851 16.1198 11.8246 15.4966 11.9424 14.8953C12.0603 14.294 12.3511 13.7418 12.7781 13.3083C13.2052 12.8748 13.7493 12.5796 14.3416 12.46C14.934 12.3404 15.548 12.4018 16.1059 12.6364C16.6639 12.871 17.1408 13.2682 17.4764 13.778C17.8119 14.2877 17.991 14.887 17.991 15.5C17.991 16.3221 17.6693 17.1104 17.0966 17.6917C16.5239 18.273 15.7472 18.5996 14.9374 18.5996Z" fill="#929AA0"/>
</svg>
