<svg width="21" height="18" viewBox="0 0 21 18" fill="none" xmlns="http://www.w3.org/2000/svg">
<path d="M11.3775 16.7489L7.18673 12.9306L3.02031 12.9253C2.45496 12.9246 1.96601 12.7363 1.55346 12.3604C1.1414 11.985 0.934971 11.5397 0.934176 11.0246L0.928323 7.22854C0.927529 6.71343 1.13577 6.26579 1.55306 5.8856C1.97034 5.5054 2.46166 5.31567 3.02702 5.31639L7.15657 5.32168L11.3355 1.51417L11.3775 16.7489ZM9.28719 12.1607L9.27781 6.08025L8.02596 7.22082L3.01151 7.21441L3.01736 11.0105L8.03181 11.0169L9.28719 12.1607ZM13.3808 0.794524C15.5323 1.23399 17.2913 2.22703 18.6579 3.77363C20.0245 5.32113 20.7094 7.10268 20.7125 9.1183C20.7156 11.1339 20.0362 12.9133 18.6744 14.4564C17.3125 16.0004 15.5565 16.9894 13.4064 17.4233L13.4034 15.4749C14.9636 15.0626 16.2224 14.2692 17.1797 13.0946C18.1361 11.9201 18.6131 10.5937 18.6108 9.11561C18.6086 7.63749 18.1274 6.30993 17.1675 5.13293C16.2065 3.95593 14.9453 3.15927 13.3838 2.74295L13.3808 0.794524ZM13.3869 4.75856C14.2971 5.20764 15.0477 5.81329 15.6388 6.57549C16.2299 7.3377 16.5262 8.18912 16.5276 9.12974C16.5291 10.0704 16.2352 10.9154 15.6459 11.6649C15.0576 12.4144 14.3091 13.0125 13.4003 13.4593L13.3968 11.1749C13.7036 10.8954 13.9553 10.5822 14.1519 10.2353C14.3475 9.8884 14.4451 9.5246 14.4445 9.14387C14.4438 8.74075 14.3481 8.36281 14.1573 8.01006C13.966 7.65686 13.7104 7.33448 13.3904 7.04293L13.3869 4.75856Z" fill="#D90429"/>
</svg>
