<svg width="20" height="20" viewBox="0 0 20 20" fill="none" xmlns="http://www.w3.org/2000/svg">
<path d="M15.4665 3.90821L15.4665 3.90821C18.8227 7.26413 19.2064 12.6503 16.3603 16.4374L16.3361 16.4653C15.7822 17.0234 16.1765 17.975 16.9644 17.975H17.4375C17.5549 17.975 17.65 18.0701 17.65 18.1875C17.65 18.3049 17.5549 18.4 17.4375 18.4H14.5335C14.4185 18.4 14.3083 18.3543 14.227 18.273C14.1457 18.1917 14.1 18.0815 14.1 17.9665V15.0625C14.1 14.9451 14.1951 14.85 14.3125 14.85C14.4299 14.85 14.525 14.9451 14.525 15.0625V15.6118C14.525 16.3733 15.4457 16.7546 15.9841 16.2161C16.0128 16.1873 16.0399 16.1562 16.0643 16.1231C18.7366 12.5066 18.3563 7.39861 15.166 4.20866C13.5104 2.55305 11.3322 1.60872 9.0034 1.53031C8.88259 1.52624 8.7875 1.42899 8.7875 1.3125C8.7875 1.19432 8.88286 1.10127 8.99689 1.10486C11.4418 1.18185 13.7286 2.17034 15.4665 3.90821Z" fill="#EDF8FD" stroke="#EDF8FD" stroke-width="0.2"/>
<path d="M2.78881 3.28981L2.78257 3.29604L2.7768 3.30269L2.74805 3.33582L2.74231 3.34243L2.73705 3.34942C-0.216443 7.27641 0.181314 12.8596 3.66101 16.3393C5.46175 18.14 7.83309 19.1652 10.3671 19.245C10.6857 19.255 10.9375 18.9961 10.9375 18.6875C10.9375 18.3747 10.685 18.13 10.3833 18.1199C8.14334 18.0445 6.04937 17.1368 4.45644 15.5438L4.45643 15.5438C1.38851 12.4762 1.02331 7.56186 3.59213 4.08489C3.60573 4.06649 3.62127 4.04851 3.63841 4.03136C3.95632 3.71338 4.49998 3.93853 4.49998 4.38817V4.9375C4.49998 5.24816 4.75182 5.5 5.06248 5.5C5.37314 5.5 5.62498 5.24816 5.62498 4.9375V2.03347C5.62498 1.82568 5.54243 1.6264 5.3955 1.47947C5.24858 1.33254 5.0493 1.25 4.84151 1.25H1.93748C1.62682 1.25 1.37498 1.50184 1.37498 1.8125C1.37498 2.12316 1.62682 2.375 1.93748 2.375H2.41057C2.88719 2.375 3.12651 2.95202 2.78881 3.28981Z" fill="#D90429" stroke="#D90429" stroke-width="0.5"/>
</svg>
