<svg width="29" height="29" viewBox="0 0 29 29" fill="none" xmlns="http://www.w3.org/2000/svg">
<path d="M28.7397 0.162053C28.5538 0.0134036 28.3308 -0.0237586 28.1077 0.0134037L10.2615 3.72963C9.92692 3.80396 9.66667 4.10126 9.66667 4.47288V19.6351C8.66282 18.5202 7.21282 17.8513 5.57692 17.8513C2.49103 17.8513 0 20.3412 0 23.4257C0 26.5101 2.49103 29 5.57692 29C8.66282 29 11.1538 26.5101 11.1538 23.4257V10.233L27.5128 6.81411V15.8817C26.509 14.7668 25.0218 14.0979 23.4231 14.0979C20.3372 14.0979 17.8462 16.5878 17.8462 19.6723C17.8462 22.7567 20.3372 25.2466 23.4231 25.2466C26.509 25.2466 29 22.7567 29 19.6723V0.719487C29 0.496514 28.8885 0.27354 28.7397 0.162053ZM5.57692 27.4763C3.30897 27.4763 1.48718 25.6554 1.48718 23.3885C1.48718 21.1216 3.30897 19.3006 5.57692 19.3006C7.84487 19.3006 9.66667 21.1216 9.66667 23.3885C9.66667 25.6554 7.84487 27.4763 5.57692 27.4763ZM23.4231 23.7601C21.1551 23.7601 19.3333 21.9392 19.3333 19.6723C19.3333 17.4054 21.1551 15.5844 23.4231 15.5844C25.691 15.5844 27.5128 17.4054 27.5128 19.6723C27.5128 21.9392 25.691 23.7601 23.4231 23.7601ZM27.5128 5.32761L11.1538 8.74654V5.06748L27.5128 1.64854V5.32761Z" fill="#929AA0"/>
</svg>
